<svg width="382" height="87" viewBox="0 0 382 87" fill="none" xmlns="http://www.w3.org/2000/svg">
<g clip-path="url(#clip0_2779_23683)">
<path d="M22.7942 17.2049C25.0075 17.8016 26.6923 18.8292 27.8485 20.2878C29.0047 21.7133 29.5829 23.5034 29.5829 25.6582C29.5829 28.7079 28.4597 31.0782 26.2133 32.7688C23.9669 34.4595 20.713 35.3048 16.4514 35.3048H0V0.497314H15.5099C19.4081 0.497314 22.4473 1.27634 24.6276 2.83439C26.8079 4.39244 27.8981 6.59689 27.8981 9.44778C27.8981 11.2711 27.4521 12.8457 26.5601 14.1717C25.7012 15.4977 24.4459 16.5088 22.7942 17.2049ZM6.3427 15.3651H14.9649C17.0461 15.3651 18.6318 14.9507 19.7219 14.122C20.8121 13.2932 21.3571 12.0666 21.3571 10.4423C21.3571 8.81795 20.8121 7.5914 19.7219 6.76267C18.6318 5.90074 17.0461 5.4698 14.9649 5.4698H6.3427V15.3651ZM16.2532 30.3323C20.8121 30.3323 23.0915 28.6085 23.0915 25.1609C23.0915 21.7796 20.8121 20.0889 16.2532 20.0889H6.3427V30.3323H16.2532Z" fill="#437A8F"/>
<path d="M52.8769 35.8019C49.375 35.8019 46.2038 35.0395 43.3628 33.5146C40.5548 31.9565 38.3414 29.8184 36.7228 27.1001C35.137 24.3818 34.3442 21.3154 34.3442 17.901C34.3442 14.4865 35.1536 11.4202 36.7723 8.70189C38.391 5.98357 40.6043 3.86197 43.4123 2.33707C46.2533 0.779022 49.4249 0 52.9263 0C55.7673 0 58.3605 0.497248 60.7062 1.49175C63.0515 2.48625 65.0336 3.92827 66.6526 5.81783L62.4899 9.74608C59.9795 7.02781 56.8906 5.66863 53.2236 5.66863C50.8454 5.66863 48.7146 6.19904 46.8315 7.25986C44.9484 8.28747 43.4784 9.7295 42.4213 11.5859C41.3642 13.4423 40.8356 15.5473 40.8356 17.901C40.8356 20.2546 41.3642 22.3596 42.4213 24.2161C43.4784 26.0724 44.9484 27.5311 46.8315 28.5918C48.7146 29.6195 50.8454 30.1333 53.2236 30.1333C56.8906 30.1333 59.9795 28.7576 62.4899 26.0061L66.6526 29.9842C65.0336 31.8737 63.035 33.3157 60.6568 34.3102C58.3111 35.3047 55.7179 35.8019 52.8769 35.8019Z" fill="#437A8F"/>
<path d="M19.0034 80.0884C15.5017 80.0884 12.3303 79.3257 9.48924 77.8008C6.68128 76.243 4.46794 74.1048 2.84922 71.3865C1.26354 68.6682 0.470703 65.602 0.470703 62.1872C0.470703 58.7729 1.28006 55.7067 2.89878 52.9884C4.51749 50.2701 6.73085 48.1484 9.53882 46.6234C12.3798 45.0654 15.5512 44.2864 19.0529 44.2864C21.8939 44.2864 24.4872 44.7836 26.8326 45.7781C29.1781 46.7726 31.1602 48.2146 32.7789 50.1044L28.6166 54.0324C26.1059 51.3141 23.0171 49.955 19.3502 49.955C16.9717 49.955 14.8409 50.4852 12.9579 51.5461C11.075 52.5737 9.60491 54.016 8.54775 55.8725C7.49064 57.7285 6.96209 59.8339 6.96209 62.1872C6.96209 64.541 7.49064 66.646 8.54775 68.5024C9.60491 70.3589 11.075 71.8176 12.9579 72.8781C14.8409 73.9056 16.9717 74.4199 19.3502 74.4199C23.0171 74.4199 26.1059 73.0438 28.6166 70.2927L32.7789 74.2705C31.1602 76.1599 29.1616 77.6022 26.7831 78.5964C24.4376 79.5911 21.8444 80.0884 19.0034 80.0884Z" fill="#437A8F"/>
<path d="M61.604 61.4913C63.8176 62.0882 65.5025 63.1157 66.6586 64.574C67.8148 65.9998 68.3929 67.7896 68.3929 69.9443C68.3929 72.9941 67.2696 75.3644 65.0231 77.0551C62.7771 78.7458 59.5231 79.5911 55.2616 79.5911H38.8101V44.7837H54.3199C58.2183 44.7837 61.2574 45.5627 63.4375 47.1208C65.6182 48.6786 66.708 50.8831 66.708 53.7343C66.708 55.5574 66.2621 57.1321 65.3703 58.4579C64.5114 59.7841 63.256 60.7953 61.604 61.4913ZM45.1528 59.6512H53.7747C55.8561 59.6512 57.4417 59.237 58.532 58.4081C59.6219 57.5797 60.167 56.353 60.167 54.7285C60.167 53.1045 59.6219 51.8778 58.532 51.0488C57.4417 50.1871 55.8561 49.7559 53.7747 49.7559H45.1528V59.6512ZM55.0631 74.6186C59.6219 74.6186 61.9013 72.895 61.9013 69.4474C61.9013 66.066 59.6219 64.3753 55.0631 64.3753H45.1528V74.6186H55.0631Z" fill="#437A8F"/>
<path d="M132.745 50.2533H121.249V79.5911H114.857V50.2533H103.41V44.7837H132.745V50.2533Z" fill="#437A8F"/>
<path d="M153.872 80.0884C150.337 80.0884 147.149 79.3257 144.308 77.8008C141.467 76.243 139.237 74.1048 137.618 71.3865C135.999 68.6349 135.19 65.5686 135.19 62.1872C135.19 58.8058 135.999 55.7565 137.618 53.0382C139.237 50.2866 141.467 48.1484 144.308 46.6234C147.149 45.0654 150.337 44.2864 153.872 44.2864C157.406 44.2864 160.594 45.0654 163.435 46.6234C166.276 48.1484 168.506 50.2701 170.125 52.9884C171.743 55.7067 172.553 58.7729 172.553 62.1872C172.553 65.602 171.743 68.6682 170.125 71.3865C168.506 74.1048 166.276 76.243 163.435 77.8008C160.594 79.3257 157.406 80.0884 153.872 80.0884ZM153.872 74.4199C156.184 74.4199 158.265 73.9056 160.115 72.8781C161.965 71.8176 163.419 70.3589 164.476 68.5024C165.533 66.6131 166.061 64.5077 166.061 62.1872C166.061 59.8667 165.533 57.7782 164.476 55.9218C163.419 54.0324 161.965 52.5737 160.115 51.5461C158.265 50.4852 156.184 49.955 153.872 49.955C151.559 49.955 149.478 50.4852 147.628 51.5461C145.778 52.5737 144.325 54.0324 143.267 55.9218C142.21 57.7782 141.682 59.8667 141.682 62.1872C141.682 64.5077 142.21 66.6131 143.267 68.5024C144.325 70.3589 145.778 71.8176 147.628 72.8781C149.478 73.9056 151.559 74.4199 153.872 74.4199Z" fill="#437A8F"/>
<path d="M213.097 74.1213V87.0002H207.15V79.5911H180.541V87.0002H174.545L174.594 74.1213H176.081C178.261 74.0222 179.781 72.4141 180.64 69.2981C181.532 66.1487 182.077 61.6571 182.275 55.8227L182.671 44.7837H208.092V74.1213H213.097ZM187.924 56.4192C187.759 60.9277 187.395 64.6905 186.834 67.7069C186.272 70.6906 185.38 72.8283 184.158 74.1213H201.749V50.2533H188.172L187.924 56.4192Z" fill="#437A8F"/>
<path d="M219.212 44.7837H225.555V69.4972L244.186 44.7837H250.182V79.5911H243.84V54.9276L225.208 79.5911H219.212V44.7837Z" fill="#437A8F"/>
<path d="M275.963 80.0884C272.428 80.0884 269.24 79.3257 266.399 77.8008C263.558 76.243 261.328 74.1048 259.709 71.3865C258.091 68.6349 257.281 65.5686 257.281 62.1872C257.281 58.8058 258.091 55.7565 259.709 53.0382C261.328 50.2866 263.558 48.1484 266.399 46.6234C269.24 45.0654 272.428 44.2864 275.963 44.2864C279.497 44.2864 282.685 45.0654 285.526 46.6234C288.368 48.1484 290.597 50.2701 292.216 52.9884C293.835 55.7067 294.644 58.7729 294.644 62.1872C294.644 65.602 293.835 68.6682 292.216 71.3865C290.597 74.1048 288.368 76.243 285.526 77.8008C282.685 79.3257 279.497 80.0884 275.963 80.0884ZM275.963 74.4199C278.275 74.4199 280.356 73.9056 282.206 72.8781C284.056 71.8176 285.51 70.3589 286.567 68.5024C287.624 66.6131 288.153 64.5077 288.153 62.1872C288.153 59.8667 287.624 57.7782 286.567 55.9218C285.51 54.0324 284.056 52.5737 282.206 51.5461C280.356 50.4852 278.275 49.955 275.963 49.955C273.65 49.955 271.569 50.4852 269.719 51.5461C267.869 52.5737 266.416 54.0324 265.358 55.9218C264.302 57.7782 263.773 59.8667 263.773 62.1872C263.773 64.5077 264.302 66.6131 265.358 68.5024C266.416 70.3589 267.869 71.8176 269.719 72.8781C271.569 73.9056 273.65 74.4199 275.963 74.4199Z" fill="#437A8F"/>
<path d="M335.187 74.1213V87.0002H329.241V79.5911H302.632V87.0002H296.636L296.685 74.1213H298.172C300.352 74.0222 301.872 72.4141 302.731 69.2981C303.623 66.1487 304.168 61.6571 304.366 55.8227L304.762 44.7837H330.183V74.1213H335.187ZM310.015 56.4192C309.85 60.9277 309.486 64.6905 308.925 67.7069C308.363 70.6906 307.471 72.8283 306.249 74.1213H323.84V50.2533H310.262L310.015 56.4192Z" fill="#437A8F"/>
<path d="M357.259 56.5685C361.421 56.5685 364.609 57.5134 366.822 59.4028C369.069 61.2593 370.192 64.0273 370.192 67.7069C370.192 71.5523 368.969 74.5026 366.525 76.5577C364.08 78.58 360.645 79.5911 356.218 79.5911H341.303V44.7837H347.645V56.5685H357.259ZM355.921 74.6186C358.431 74.6186 360.364 74.0386 361.718 72.8781C363.073 71.7181 363.75 70.0274 363.75 67.8065C363.75 63.5962 361.14 61.4913 355.921 61.4913H347.645V74.6186H355.921ZM375.197 44.7837H381.539V79.5911H375.197V44.7837Z" fill="#437A8F"/>
<path d="M381.541 0H72.7495V6.15931H381.541V0Z" fill="url(#paint0_linear_2779_23683)"/>
<path d="M98.0881 15.104H72.5332V20.5427H98.0881V15.104Z" fill="#437A8F"/>
<path d="M381.541 30.0266H72.7495V35.416H381.541V30.0266Z" fill="url(#paint1_linear_2779_23683)"/>
<path d="M109.896 11.6467H114.189V12.8212H111.471V22.9717H109.896V11.6467Z" fill="#437A8F"/>
<path d="M119.361 11.6467H120.88L123.291 22.9717H121.8L121.284 20.1195H118.985L118.442 22.9717H116.965L119.361 11.6467ZM121.075 18.987L120.128 13.8838L119.194 18.987H121.075Z" fill="#437A8F"/>
<path d="M127.015 11.6467H129.816C130.791 11.6467 131.497 11.9124 131.934 12.4437C132.38 12.975 132.602 13.7533 132.602 14.7786C132.602 15.7014 132.366 16.4191 131.892 16.9317C131.418 17.4444 130.731 17.7007 129.83 17.7007H128.589V22.9717H127.015V11.6467ZM129.314 16.5682C129.778 16.5682 130.136 16.5169 130.387 16.4144C130.647 16.3119 130.833 16.1348 130.944 15.8831C131.056 15.6315 131.112 15.268 131.112 14.7926C131.112 14.2147 131.069 13.7906 130.986 13.5203C130.902 13.2499 130.735 13.0589 130.485 12.947C130.243 12.8351 129.857 12.7792 129.328 12.7792H128.589V16.5682H129.314Z" fill="#437A8F"/>
<path d="M137.908 11.6467H139.427L141.837 22.9717H140.346L139.831 20.1195H137.532L136.988 22.9717H135.511L137.908 11.6467ZM139.622 18.987L138.674 13.8838L137.741 18.987H139.622Z" fill="#437A8F"/>
<path d="M145.561 11.6467H147.136V16.5402H150.034V11.6467H151.609V22.9717H150.034V17.6727H147.136V22.9717H145.561V11.6467Z" fill="#437A8F"/>
<path d="M157.19 12.8212H155.281V11.6467H160.618V12.8212H158.765V22.9717H157.19V12.8212Z" fill="#437A8F"/>
<path d="M164.284 11.6467H165.678V19.4903L168.98 11.6467H170.109V22.9717H168.729V15.0023L165.454 22.9717H164.284V11.6467Z" fill="#437A8F"/>
<path d="M176.128 17.8825C175.608 17.6494 175.199 17.272 174.901 16.75C174.613 16.228 174.47 15.5709 174.47 14.7786C174.47 12.6907 175.649 11.6467 178.009 11.6467H180.294V22.9717H178.719V18.274H177.828L177.466 18.26L175.515 22.9717H173.759L176.128 17.8825ZM178.719 17.1415V12.7792H178.092C177.368 12.7792 176.829 12.9377 176.476 13.2546C176.133 13.5622 175.961 14.0655 175.961 14.7646C175.961 15.5848 176.128 16.1861 176.462 16.5682C176.797 16.9504 177.354 17.1415 178.135 17.1415H178.719Z" fill="#437A8F"/>
<path d="M190.389 11.6467H196.604V22.9717H195.03V12.7792H191.964V22.9717H190.389V11.6467Z" fill="#437A8F"/>
<path d="M200.941 11.6467H203.742C204.718 11.6467 205.424 11.9124 205.86 12.4437C206.306 12.975 206.529 13.7533 206.529 14.7786C206.529 15.7014 206.292 16.4191 205.818 16.9317C205.345 17.4444 204.657 17.7007 203.756 17.7007H202.516V22.9717H200.941V11.6467ZM203.241 16.5682C203.705 16.5682 204.063 16.5169 204.314 16.4144C204.574 16.3119 204.759 16.1348 204.871 15.8831C204.983 15.6315 205.038 15.268 205.038 14.7926C205.038 14.2147 204.996 13.7906 204.913 13.5203C204.829 13.2499 204.662 13.0589 204.411 12.947C204.17 12.8351 203.784 12.7792 203.255 12.7792H202.516V16.5682H203.241Z" fill="#437A8F"/>
<path d="M213.1 23.0975C211.994 23.0975 211.2 22.7853 210.717 22.1607C210.243 21.527 210.006 20.6135 210.006 19.4204V15.1281C210.006 13.9537 210.247 13.0635 210.731 12.4576C211.214 11.8518 212.003 11.5488 213.1 11.5488C214.196 11.5488 214.981 11.8564 215.455 12.4716C215.938 13.0775 216.179 13.963 216.179 15.1281V19.4344C216.179 20.6088 215.938 21.5129 215.455 22.1468C214.971 22.7806 214.187 23.0975 213.1 23.0975ZM213.1 21.8532C213.685 21.8532 214.08 21.6808 214.284 21.3358C214.489 20.991 214.591 20.469 214.591 19.7699V14.8065C214.591 14.1168 214.489 13.6088 214.284 13.2825C214.08 12.947 213.685 12.7792 213.1 12.7792C212.505 12.7792 212.106 12.947 211.901 13.2825C211.697 13.6088 211.595 14.1168 211.595 14.8065V19.7699C211.595 20.469 211.697 20.991 211.901 21.3358C212.106 21.6808 212.505 21.8532 213.1 21.8532Z" fill="#437A8F"/>
<path d="M220.305 11.6467H222.896C223.918 11.6467 224.676 11.8798 225.168 12.3458C225.66 12.8025 225.906 13.5156 225.906 14.485C225.906 15.9297 225.367 16.7267 224.29 16.8758C224.959 17.0343 225.447 17.3512 225.753 17.8265C226.06 18.2926 226.213 18.9311 226.213 19.742C226.213 20.758 225.972 21.5503 225.489 22.1189C225.015 22.6874 224.29 22.9717 223.315 22.9717H220.305V11.6467ZM222.813 16.3725C223.463 16.3725 223.914 16.2326 224.165 15.953C224.416 15.6641 224.541 15.1747 224.541 14.485C224.541 13.9817 224.462 13.6135 224.304 13.3804C224.155 13.1381 223.928 12.9843 223.621 12.9191C223.315 12.8538 222.86 12.8212 222.255 12.8212H221.879V16.3725H222.813ZM222.938 21.8392C223.403 21.8392 223.761 21.7693 224.011 21.6295C224.271 21.4803 224.452 21.2567 224.555 20.9584C224.657 20.6601 224.708 20.2547 224.708 19.742C224.708 19.015 224.559 18.4743 224.262 18.1202C223.965 17.7566 223.482 17.5749 222.813 17.5749H221.879V21.8392H222.938Z" fill="#437A8F"/>
<path d="M230.19 11.6467H234.566V12.8212H231.765V16.5682H234.037V17.6868H231.765V21.8392H234.594V22.9717H230.19V11.6467Z" fill="#437A8F"/>
<path d="M238.443 11.6467H241.244C242.219 11.6467 242.925 11.9124 243.362 12.4437C243.808 12.975 244.031 13.7533 244.031 14.7786C244.031 15.7014 243.794 16.4191 243.32 16.9317C242.846 17.4444 242.159 17.7007 241.258 17.7007H240.017V22.9717H238.443V11.6467ZM240.742 16.5682C241.206 16.5682 241.564 16.5169 241.815 16.4144C242.075 16.3119 242.261 16.1348 242.372 15.8831C242.484 15.6315 242.539 15.268 242.539 14.7926C242.539 14.2147 242.498 13.7906 242.414 13.5203C242.331 13.2499 242.163 13.0589 241.912 12.947C241.671 12.8351 241.285 12.7792 240.756 12.7792H240.017V16.5682H240.742Z" fill="#437A8F"/>
<path d="M247.716 11.6467H252.092V12.8212H249.291V16.5682H251.562V17.6868H249.291V21.8392H252.12V22.9717H247.716V11.6467Z" fill="#437A8F"/>
<path d="M255.969 11.6467H257.544V16.5402H260.442V11.6467H262.017V22.9717H260.442V17.6727H257.544V22.9717H255.969V11.6467Z" fill="#437A8F"/>
<path d="M266.357 11.6467H267.932V16.5402H270.831V11.6467H272.406V22.9717H270.831V17.6727H267.932V22.9717H266.357V11.6467Z" fill="#437A8F"/>
<path d="M279.631 23.0975C278.526 23.0975 277.732 22.7853 277.249 22.1607C276.775 21.527 276.538 20.6135 276.538 19.4204V15.1281C276.538 13.9537 276.78 13.0635 277.263 12.4576C277.746 11.8518 278.535 11.5488 279.631 11.5488C280.728 11.5488 281.513 11.8564 281.987 12.4716C282.469 13.0775 282.711 13.963 282.711 15.1281V19.4344C282.711 20.6088 282.469 21.5129 281.987 22.1468C281.504 22.7806 280.718 23.0975 279.631 23.0975ZM279.631 21.8532C280.217 21.8532 280.612 21.6808 280.816 21.3358C281.02 20.991 281.123 20.469 281.123 19.7699V14.8065C281.123 14.1168 281.02 13.6088 280.816 13.2825C280.612 12.947 280.217 12.7792 279.631 12.7792C279.037 12.7792 278.637 12.947 278.433 13.2825C278.229 13.6088 278.127 14.1168 278.127 14.8065V19.7699C278.127 20.469 278.229 20.991 278.433 21.3358C278.637 21.6808 279.037 21.8532 279.631 21.8532Z" fill="#437A8F"/>
<path d="M286.837 11.6467H291.129V12.8212H288.412V22.9717H286.837V11.6467Z" fill="#437A8F"/>
<path d="M297.674 23.0975C296.569 23.0975 295.775 22.7853 295.292 22.1607C294.818 21.527 294.581 20.6135 294.581 19.4204V15.1281C294.581 13.9537 294.823 13.0635 295.305 12.4576C295.789 11.8518 296.578 11.5488 297.674 11.5488C298.771 11.5488 299.556 11.8564 300.029 12.4716C300.512 13.0775 300.754 13.963 300.754 15.1281V19.4344C300.754 20.6088 300.512 21.5129 300.029 22.1468C299.547 22.7806 298.761 23.0975 297.674 23.0975ZM297.674 21.8532C298.26 21.8532 298.655 21.6808 298.859 21.3358C299.063 20.991 299.166 20.469 299.166 19.7699V14.8065C299.166 14.1168 299.063 13.6088 298.859 13.2825C298.655 12.947 298.26 12.7792 297.674 12.7792C297.08 12.7792 296.68 12.947 296.476 13.2825C296.272 13.6088 296.17 14.1168 296.17 14.8065V19.7699C296.17 20.469 296.272 20.991 296.476 21.3358C296.68 21.6808 297.08 21.8532 297.674 21.8532Z" fill="#437A8F"/>
<path d="M310.642 11.6467H312.216V16.6801H312.801L314.822 11.6467H316.397L314.167 17.0296L316.676 22.9717H315.101L312.815 17.449H312.216V22.9717H310.642V11.6467Z" fill="#437A8F"/>
<path d="M322.08 11.6467H323.599L326.009 22.9717H324.518L324.003 20.1195H321.703L321.16 22.9717H319.683L322.08 11.6467ZM323.794 18.987L322.846 13.8838L321.913 18.987H323.794Z" fill="#437A8F"/>
<path d="M333.685 17.7427C333.072 17.8825 332.519 17.9524 332.027 17.9524C331.061 17.9524 330.341 17.738 329.867 17.3092C329.403 16.8711 329.17 16.2093 329.17 15.3239V11.6467H330.759V15.3239C330.759 15.8738 330.88 16.2793 331.122 16.5402C331.363 16.7919 331.767 16.9178 332.334 16.9178C332.733 16.9178 333.184 16.8618 333.685 16.75V11.6467H335.274V22.9717H333.685V17.7427Z" fill="#437A8F"/>
<path d="M339.604 11.6467H343.98V12.8212H341.179V16.5682H343.451V17.6868H341.179V21.8392H344.008V22.9717H339.604V11.6467Z" fill="#437A8F"/>
<path d="M350.687 23.0975C349.572 23.0975 348.787 22.7666 348.332 22.1048C347.876 21.4337 347.649 20.5109 347.649 19.3365V15.3378C347.649 14.0981 347.872 13.1567 348.318 12.5136C348.763 11.8704 349.553 11.5488 350.687 11.5488C351.699 11.5488 352.424 11.8238 352.86 12.3737C353.306 12.9237 353.53 13.7346 353.53 14.8065V15.7013H352.038V14.9044C352.038 14.3824 352.015 13.9816 351.969 13.702C351.922 13.4224 351.802 13.1986 351.606 13.0309C351.421 12.8631 351.118 12.7792 350.701 12.7792C350.273 12.7792 349.953 12.8724 349.739 13.0589C349.535 13.236 349.4 13.4876 349.335 13.8138C349.27 14.1307 349.237 14.5595 349.237 15.1001V19.5882C349.237 20.1661 349.284 20.6181 349.377 20.9444C349.47 21.2706 349.618 21.5037 349.823 21.6434C350.036 21.7833 350.329 21.8532 350.701 21.8532C351.1 21.8532 351.397 21.7646 351.592 21.5875C351.788 21.4104 351.908 21.1681 351.955 20.8605C352.01 20.5529 352.038 20.1335 352.038 19.6022V18.7633H353.53V19.6022C353.53 20.73 353.316 21.5968 352.888 22.2027C352.47 22.7992 351.736 23.0975 350.687 23.0975Z" fill="#437A8F"/>
<path d="M358.847 12.8212H356.938V11.6467H362.275V12.8212H360.422V22.9717H358.847V12.8212Z" fill="#437A8F"/>
<path d="M365.941 11.6467H368.533C369.555 11.6467 370.312 11.8798 370.804 12.3458C371.297 12.8025 371.543 13.5156 371.543 14.485C371.543 15.9297 371.004 16.7267 369.926 16.8758C370.596 17.0343 371.083 17.3512 371.39 17.8265C371.696 18.2926 371.849 18.9311 371.849 19.742C371.849 20.758 371.608 21.5503 371.125 22.1189C370.651 22.6874 369.926 22.9717 368.951 22.9717H365.941V11.6467ZM368.449 16.3725C369.1 16.3725 369.55 16.2326 369.801 15.953C370.052 15.6641 370.177 15.1747 370.177 14.485C370.177 13.9817 370.098 13.6135 369.94 13.3804C369.792 13.1381 369.564 12.9843 369.258 12.9191C368.951 12.8538 368.496 12.8212 367.892 12.8212H367.516V16.3725H368.449ZM368.575 21.8392C369.039 21.8392 369.397 21.7693 369.648 21.6295C369.908 21.4803 370.089 21.2567 370.191 20.9584C370.293 20.6601 370.345 20.2547 370.345 19.742C370.345 19.015 370.196 18.4743 369.899 18.1202C369.602 17.7566 369.118 17.5749 368.449 17.5749H367.516V21.8392H368.575Z" fill="#437A8F"/>
<path d="M377.61 11.6467H379.129L381.54 22.9717H380.049L379.534 20.1195H377.234L376.691 22.9717H375.213L377.61 11.6467ZM379.324 18.987L378.377 13.8838L377.443 18.987H379.324Z" fill="#437A8F"/>
<path d="M98.0876 44.6282H72.5327V50.0668H98.0876V44.6282Z" fill="#437A8F"/>
<path d="M89.5693 59.3901H72.5327V64.8288H89.5693V59.3901Z" fill="#437A8F"/>
<path d="M98.0876 74.1526H72.5327V79.5912H98.0876V74.1526Z" fill="#437A8F"/>
</g>
<defs>
<linearGradient id="paint0_linear_2779_23683" x1="72.7495" y1="3.02562" x2="381.541" y2="3.02562" gradientUnits="userSpaceOnUse">
<stop stop-color="#437A8F"/>
<stop offset="1" stop-color="white" stop-opacity="0"/>
</linearGradient>
<linearGradient id="paint1_linear_2779_23683" x1="72.7495" y1="32.674" x2="381.541" y2="32.674" gradientUnits="userSpaceOnUse">
<stop stop-color="#437A8F"/>
<stop offset="1" stop-color="white" stop-opacity="0"/>
</linearGradient>
<clipPath id="clip0_2779_23683">
<rect width="382" height="87" fill="white"/>
</clipPath>
</defs>
</svg>
