<svg width="36" height="36" viewBox="0 0 36 36" fill="none" xmlns="http://www.w3.org/2000/svg">
<g clip-path="url(#clip0_2687_70679)">
<path d="M35.8504 28.6874L29.0329 16.8547C28.8777 16.5869 28.6189 16.3934 28.3197 16.3214C28.0204 16.2494 27.7032 16.3034 27.4422 16.4722L17.9922 22.6372C17.4927 22.9657 17.3352 23.6249 17.6322 24.1424L24.1572 35.4374C24.3597 35.7884 24.7332 35.9999 25.1314 35.9999C25.1787 35.9999 25.2304 35.9977 25.2777 35.9909C25.7299 35.9302 26.0989 35.6039 26.2182 35.1652L27.9754 28.5592L34.5814 30.3344C35.0224 30.4559 35.4859 30.2939 35.7649 29.9339C36.0439 29.5762 36.0754 29.0834 35.8504 28.6874Z" fill="white"/>
<path d="M18.0059 22.6395L8.55592 16.4745C8.29717 16.3035 7.97542 16.2473 7.67842 16.3238C7.37917 16.3935 7.12042 16.587 6.96742 16.8548L0.149918 28.6875C-0.0773322 29.0835 -0.0435822 29.5763 0.233168 29.9363C0.509918 30.2963 0.975668 30.4583 1.41667 30.3368L8.02267 28.5615L9.77992 35.1675C9.89692 35.6063 10.2682 35.9325 10.7182 35.9933C10.7677 35.9978 10.8194 36 10.8667 36C11.2649 36 11.6384 35.7885 11.8409 35.4375L18.3659 24.1425C18.6652 23.6273 18.5077 22.9658 18.0059 22.6395Z" fill="white"/>
<path d="M17.9995 24.75C24.834 24.75 30.3745 19.2095 30.3745 12.375C30.3745 5.54048 24.834 0 17.9995 0C11.165 0 5.62451 5.54048 5.62451 12.375C5.62451 19.2095 11.165 24.75 17.9995 24.75Z" fill="#2196F3"/>
<path d="M24.6931 9.56708C24.5716 9.20483 24.2769 8.93033 23.9102 8.83358L20.7174 7.99883L18.9669 5.05133C18.5619 4.36733 17.4369 4.36733 17.0341 5.05133L15.2836 7.99883L12.0909 8.83358C11.7196 8.93033 11.4271 9.20483 11.3056 9.56708C11.1841 9.92933 11.2561 10.3253 11.4946 10.6246L13.6321 13.3021L13.4004 16.8008C13.3756 17.1901 13.5534 17.5658 13.8729 17.7931C14.1924 18.0203 14.6041 18.0631 14.9641 17.9101L17.9994 16.6208L21.0369 17.9101C21.1764 17.9708 21.3271 18.0001 21.4756 18.0001C21.7074 18.0001 21.9324 17.9303 22.1259 17.7931C22.4476 17.5658 22.6254 17.1901 22.5984 16.8008L22.3644 13.3021L24.5019 10.6246C24.7404 10.3253 24.8124 9.92933 24.6931 9.56708Z" fill="#FAFAFA"/>
</g>
<defs>
<clipPath id="clip0_2687_70679">
<rect width="36" height="36" fill="white"/>
</clipPath>
</defs>
</svg>
