<svg width="20" height="21" viewBox="0 0 20 21" fill="none" xmlns="http://www.w3.org/2000/svg">
<g clip-path="url(#clip0_2830_23664)">
<path d="M19.3613 19.0076L14.6012 14.0071C15.8251 12.5376 16.4957 10.6886 16.4957 8.7637C16.4957 4.2664 12.8732 0.607422 8.42069 0.607422C3.96821 0.607422 0.345703 4.2664 0.345703 8.7637C0.345703 13.261 3.96821 16.92 8.42069 16.92C10.0922 16.92 11.6851 16.4107 13.047 15.444L17.8432 20.4825C18.0436 20.6928 18.3133 20.8087 18.6022 20.8087C18.8757 20.8087 19.1352 20.7034 19.3321 20.5119C19.7506 20.1052 19.764 19.4307 19.3613 19.0076ZM8.42069 2.73515C11.7118 2.73515 14.3892 5.43948 14.3892 8.7637C14.3892 12.0879 11.7118 14.7923 8.42069 14.7923C5.12961 14.7923 2.45222 12.0879 2.45222 8.7637C2.45222 5.43948 5.12961 2.73515 8.42069 2.73515Z" fill="#A8A8A8"/>
</g>
<defs>
<clipPath id="clip0_2830_23664">
<rect width="20" height="20.2013" fill="white" transform="translate(0 0.607422)"/>
</clipPath>
</defs>
</svg>
