<svg width="50" height="52" viewBox="0 0 50 52" fill="none" xmlns="http://www.w3.org/2000/svg">
<path d="M33.8905 33.6466H33.8882C33.8863 33.6466 33.8844 33.6463 33.8825 33.6463H7.32422C6.67038 33.6463 6.0955 33.2082 5.91583 32.5732L0.0564537 11.8589C-0.0698128 11.4123 0.0186881 10.9322 0.295254 10.5616C0.572201 10.1909 1.00517 9.97281 1.46484 9.97281H37.2688L38.316 5.21307C38.4651 4.53608 39.0594 4.05444 39.7461 4.05444H48.5352C49.3443 4.05444 50 4.71679 50 5.53403C50 6.35128 49.3443 7.01362 48.5352 7.01362H40.921C40.7356 7.85707 35.91 29.7912 35.6323 31.0531C37.1891 31.7367 38.2812 33.3045 38.2812 35.1258C38.2812 37.5733 36.3098 39.5646 33.8867 39.5646H7.32422C6.51512 39.5646 5.85937 38.9023 5.85937 38.085C5.85937 37.2678 6.51512 36.6054 7.32422 36.6054H33.8867C34.6943 36.6054 35.3516 35.9415 35.3516 35.1258C35.3516 34.3113 34.6966 33.6486 33.8905 33.6466V33.6466ZM3.4069 12.932L8.42933 30.6871H32.7118L36.618 12.932H3.4069Z" fill="#153C51"/>
<path d="M35.3516 44.0032C35.3516 46.4507 33.3801 48.442 30.957 48.442C28.5339 48.442 26.5625 46.4507 26.5625 44.0032C26.5625 41.5557 28.5339 39.5645 30.957 39.5645C33.3801 39.5645 35.3516 41.5557 35.3516 44.0032ZM30.957 42.5236C30.1495 42.5236 29.4922 43.1875 29.4922 44.0032C29.4922 44.8189 30.1495 45.4828 30.957 45.4828C31.7646 45.4828 32.4219 44.8189 32.4219 44.0032C32.4219 43.1875 31.7646 42.5236 30.957 42.5236Z" fill="#153C51"/>
<path d="M14.6484 44.0032C14.6484 46.4507 12.677 48.442 10.2539 48.442C7.83081 48.442 5.85938 46.4507 5.85938 44.0032C5.85938 41.5557 7.83081 39.5645 10.2539 39.5645C12.677 39.5645 14.6484 41.5557 14.6484 44.0032ZM10.2539 42.5236C9.44633 42.5236 8.78906 43.1875 8.78906 44.0032C8.78906 44.8189 9.44633 45.4828 10.2539 45.4828C11.0615 45.4828 11.7188 44.8189 11.7188 44.0032C11.7188 43.1875 11.0615 42.5236 10.2539 42.5236Z" fill="#153C51"/>
</svg>
