<svg width="14" height="20" viewBox="0 0 14 20" fill="none" xmlns="http://www.w3.org/2000/svg">
<path d="M11.3757 0H10.334H3.66732H2.62565C1.36148 0 0.333984 1.0275 0.333984 2.29167V17.7083C0.333984 18.9725 1.36148 20 2.62565 20H11.3757C12.6398 20 13.6673 18.9725 13.6673 17.7083V2.29167C13.6673 1.0275 12.6398 0 11.3757 0ZM12.0007 17.5C12.0007 17.96 11.6273 18.3333 11.1673 18.3333H2.83398C2.37398 18.3333 2.00065 17.96 2.00065 17.5V2.5C2.00065 2.04 2.37398 1.66667 2.83398 1.66667H3.25065C3.71065 1.66667 4.08398 2.04 4.08398 2.5C4.08398 2.96 4.45732 3.33333 4.91732 3.33333H9.08398C9.54398 3.33333 9.91732 2.96 9.91732 2.5C9.91732 2.04 10.2907 1.66667 10.7507 1.66667H11.1673C11.6273 1.66667 12.0007 2.04 12.0007 2.5V17.5Z" fill="#525252"/>
</svg>
