<svg width="22" height="23" viewBox="0 0 22 23" fill="none" xmlns="http://www.w3.org/2000/svg">
<path d="M16.2783 13.0774C16.2355 13.0566 14.6316 12.2589 14.3466 12.1553C14.2303 12.1131 14.1056 12.0719 13.9731 12.0719C13.7565 12.0719 13.5746 12.1809 13.4329 12.3951C13.2726 12.6356 12.7876 13.2082 12.6378 13.3793C12.6182 13.4019 12.5915 13.4289 12.5755 13.4289C12.5612 13.4289 12.3129 13.3256 12.2378 13.2927C10.5173 12.5378 9.21136 10.7225 9.03227 10.4164C9.0067 10.3724 9.00563 10.3524 9.00541 10.3524C9.01169 10.3291 9.06957 10.2705 9.09943 10.2403C9.18678 10.153 9.28144 10.0379 9.37301 9.92661C9.41637 9.87388 9.45981 9.82106 9.50243 9.77128C9.63529 9.61516 9.69442 9.49394 9.763 9.35354L9.79892 9.28058C9.96637 8.94457 9.82337 8.66107 9.77713 8.5695C9.73919 8.49289 9.062 6.842 8.98999 6.66857C8.81682 6.25005 8.58806 6.05518 8.27013 6.05518C8.24061 6.05518 8.27013 6.05518 8.14642 6.06043C7.99578 6.06685 7.17542 6.17592 6.81272 6.4069C6.42806 6.65186 5.77734 7.4326 5.77734 8.80573C5.77734 10.0415 6.55379 11.2084 6.88714 11.6522C6.89543 11.6634 6.91064 11.6861 6.93273 11.7187C8.20937 13.6019 9.80089 14.9975 11.4142 15.6485C12.9675 16.2752 13.703 16.3476 14.1211 16.3476C14.1212 16.3476 14.1212 16.3476 14.1212 16.3476C14.2969 16.3476 14.4375 16.3337 14.5616 16.3214L14.6403 16.3138C15.1769 16.2657 16.356 15.6485 16.6242 14.8957C16.8355 14.3027 16.8913 13.6548 16.7507 13.4197C16.6544 13.2597 16.4884 13.1793 16.2783 13.0774Z" fill="#8DC63F"/>
<path d="M11.1953 0.308594C5.237 0.308594 0.389563 5.16802 0.389563 11.141C0.389563 13.0729 0.901407 14.964 1.87108 16.6191L0.0151333 22.1488C-0.0194565 22.2519 0.00628174 22.3659 0.0817778 22.4436C0.136305 22.4998 0.210211 22.5301 0.285708 22.5301C0.314625 22.5301 0.343758 22.5257 0.372204 22.5165L6.08077 20.6842C7.6429 21.5272 9.40849 21.9723 11.1953 21.9723C17.1531 21.9724 22 17.1134 22 11.141C22 5.16802 17.1531 0.308594 11.1953 0.308594ZM11.1953 19.7159C9.51393 19.7159 7.88546 19.2255 6.48558 18.2977C6.43853 18.2664 6.38388 18.2504 6.32888 18.2504C6.29979 18.2504 6.27065 18.2549 6.24229 18.264L3.38264 19.1821L4.30578 16.4312C4.33564 16.3422 4.32069 16.244 4.26569 16.1681C3.19968 14.6969 2.63618 12.9586 2.63618 11.141C2.63618 6.41225 6.47574 2.56507 11.1952 2.56507C15.914 2.56507 19.7532 6.41225 19.7532 11.141C19.7533 15.8693 15.9142 19.7159 11.1953 19.7159Z" fill="#8DC63F"/>
</svg>
